PathFileType	4	(X/Y/Z)	Patient4_TMGait_0pt4_03_left_06.trc.trc
DataRate	CameraRate	NumFrames	NumMarkers	Units	OrigDataRate	OrigDataStartFrame	OrigNumFrames
76.086956521739	76.086956521739	5	33	mm	76.086956521739	53	       141
Frame#	Time	Sacral			L.Shoulder			Chest			R.Shoulder			Neck			R.ASIS			L.ASIS			R.Thigh.Superior			R.Thigh.Lateral			R.Thigh.Inferior			R.Patella			L.Thigh.Superior			L.Thigh.Lateral			L.Thigh.Inferior			L.Patella			L.Shank.Superior			L.Shank.Lateral			L.Shank.Inferior			R.Shank.Superior			R.Shank.Lateral			R.Shank.Inferior			R.Heel			R.Midfoot.Superior			R.Midfoot.Lateral			R.Toe			L.Heel			L.Midfoot.Lateral			L.Midfoot.Superior			L.Toe			L.Elbow			L.Wrist			R.Elbow			R.Wrist			
		X1	Y1	Z1	X2	Y2	Z2	X3	Y3	Z3	X4	Y4	Z4	X5	Y5	Z5	X6	Y6	Z6	X7	Y7	Z7	X8	Y8	Z8	X9	Y9	Z9	X10	Y10	Z10	X11	Y11	Z11	X12	Y12	Z12	X13	Y13	Z13	X14	Y14	Z14	X15	Y15	Z15	X16	Y16	Z16	X17	Y17	Z17	X18	Y18	Z18	X19	Y19	Z19	X20	Y20	Z20	X21	Y21	Z21	X22	Y22	Z22	X23	Y23	Z23	X24	Y24	Z24	X25	Y25	Z25	X26	Y26	Z26	X27	Y27	Z27	X28	Y28	Z28	X29	Y29	Z29	X30	Y30	Z30	X31	Y31	Z31	X32	Y32	Z32	X33	Y33	Z33	

53	8.113428571429	796.488515874755	1003.083449904495	444.458404419456	960.899933919886	1430.537640219813	238.170026948410	1071.221571843866	1369.859356808247	397.779383389285	991.968304226333	1447.090686331705	572.518731993862	958.247271054997	1498.355585191931	391.811676910934	1031.285493828338	951.829300775856	554.597577734081	1009.047301454168	967.452608367557	280.484881114223	1120.498567583310	785.233809704395	525.683247266594	1088.854933396715	663.999019848768	606.634777386913	1179.018307197869	627.748209100631	527.412290999603	1204.357301798423	518.116777860092	552.284489153705	1063.707796153170	755.239154222032	308.135822989459	975.603457318511	638.161300201927	250.452376260425	1060.784625654967	562.249575373005	312.470540801883	1060.750371820021	494.297492752818	323.094970204352	1038.169378549990	421.279590541591	314.282971203264	952.519235083010	303.499753629622	264.207010431689	1007.734570128398	195.290402462379	337.323971893879	1134.423778903639	438.124552961911	564.494720264322	1019.564875095222	391.846415646062	632.633962671892	1010.520797922223	280.413433206049	587.627559931151	815.209110330906	210.377406188461	573.468044937382	986.819334737984	153.972582052117	604.695084312821	878.744952274280	148.748094854084	641.202534713420	1053.506809754555	39.271727665796	621.637084701754	884.461656559106	38.116411394625	381.663939962690	956.624826018290	34.519248606784	299.089778485168	1038.663641669180	97.905524483333	325.195760761121	1167.443468478698	49.953897024560	294.075954930468	966.992594210096	1082.945355441207	107.193210979308	1117.952414511906	867.012638099389	104.951607149828	959.120741802092	1101.143575109918	699.689404560900	1062.075589599671	860.763190429143	690.039006066574	
54	8.126571428571	795.371452439223	1003.778678188181	441.708511473071	962.910516256808	1431.320093826285	237.124620516785	1071.257814060694	1370.263546351970	397.921986108733	990.088761237727	1447.346622905485	571.812641073789	958.403611947256	1498.898621543037	390.896659667236	1029.315678284205	952.770677135730	554.125298846518	1009.398294476819	967.633873828004	279.815345399264	1119.811723690542	787.827870664051	525.508221104881	1089.537242616365	666.679029675312	607.117058710739	1179.897501257095	631.014844200764	527.851161662627	1206.897579148397	522.581934791766	553.362819098666	1062.176125482378	754.671358570642	308.414895006430	973.473850492550	638.250577946109	249.734832212444	1057.476987043171	561.669549024979	312.430268029420	1056.766486746391	493.828533455136	323.102147149738	1034.043740823046	420.982778788019	314.148818238354	948.219545168253	303.405028022246	263.860990464068	1002.817292056532	195.125124614045	337.296659417666	1139.676934687962	440.875515149847	565.534191117392	1026.684702779370	390.006860719225	633.297866159621	1022.447957828075	278.261217767671	588.487322166694	830.363444832690	199.747636341176	573.909688512303	1004.100331324751	151.014020839003	605.582624744171	896.316299719704	140.815562316924	641.667950193372	1075.630810352002	39.636163510074	622.361385008869	879.113523236180	38.085886471963	381.636784143069	951.313518982831	34.504603103419	299.074544725854	1033.361877752183	97.855361762017	325.232775645509	1162.145522110666	49.935583529230	294.118839291801	971.499959759903	1084.375105975474	104.884368696108	1129.646223159165	873.567708969226	104.350883673948	951.069773029908	1102.155276902133	698.650841697123	1042.518117141437	856.734645547019	694.422546168242	
55	8.139714285714	794.373075605452	1004.402453742013	439.009605448207	965.111332256004	1432.003096177422	236.227658974212	1071.415396514748	1370.546124409618	398.222539714555	988.332513598386	1447.522562176273	571.220350767839	958.666913813110	1499.350074536088	390.118289038986	1027.319500535609	953.530183604861	553.773840801985	1009.850790478645	967.751456835245	279.285065410671	1118.771346777015	789.887427647681	525.574306190425	1089.525825828331	668.893182585356	607.825728839622	1179.894939540878	633.533777647097	528.464559827472	1208.357937879126	526.577581766324	554.636097669964	1060.644012258562	754.090201759894	308.913695067070	971.432896805396	638.323667693243	249.019305485572	1054.196152039083	561.086338995965	312.444682988536	1052.800775752922	493.343441669971	323.101764672106	1029.932835214468	420.665041451668	314.013558817554	943.935351127109	303.290515275812	263.467173189943	997.905347105445	194.947129309079	337.247138219084	1144.264618971371	443.183637675757	566.828003916722	1033.655063471452	387.243567173498	634.255792234472	1034.908775690941	275.372015297517	589.686453332161	846.952347670418	187.461604548551	574.571453602269	1022.655667411648	147.465595077570	606.964515505996	915.414676399741	131.874178631086	642.582976625858	1099.461460099236	40.143599496732	624.000877440450	873.777850656287	38.058548709174	381.612009829261	946.006757943702	34.484428244184	299.056994637671	1028.073240166669	97.795832625346	325.271088719030	1156.860051705183	49.891886901685	294.168856093358	975.662360779250	1085.669264025240	102.861730301083	1140.980799017164	880.377787557416	104.028855220575	943.336665302652	1103.228597634834	697.756972926921	1023.669719468989	853.735768767123	698.495353785135	
56	8.152857142857	793.510915613092	1004.938604842513	436.391314422654	967.470589428383	1432.556582014747	235.485794090773	1071.687825678924	1370.695547027281	398.676346716389	986.709473579621	1447.612176274665	570.744682476725	959.034082916861	1499.695650335899	389.476873384933	1025.335580991476	954.085966726522	553.545094940999	1010.404401395480	967.811139034941	278.887778647475	1117.363589250748	791.335037058672	525.875827218194	1088.757072263304	670.566653545620	608.728093742514	1178.969372329717	635.226476986164	529.239536491814	1208.703026394613	530.020443332031	556.041135111994	1059.134341984563	753.493209439341	309.561335719942	969.480329229706	638.370790158595	248.305834385063	1050.960932263316	560.495418593428	312.487863412140	1048.880768230450	492.840445397251	323.076310504095	1025.860498788671	420.322082946347	313.866655395819	939.680037344238	303.155983977352	263.022288892613	993.010820604700	194.752657962290	337.170413317464	1148.127560304200	445.049415908809	568.333360938624	1040.485486456901	383.693925096525	635.521129964257	1047.810081740942	271.965526623127	591.224644966879	864.989087265970	173.965847148976	575.525655698204	1042.329737471377	143.639301973039	608.830618473768	935.960016846099	122.344039272851	643.986077572994	1124.666533770303	41.063867546598	626.500411000267	868.459141346177	38.036746229789	381.588140519943	940.707299835169	34.459590523673	299.035543791565	1022.803033318944	97.722561254569	325.309631265611	1151.590891724811	49.811706618288	294.223322874520	979.533479818463	1086.788876102383	101.124250276413	1151.941240734109	887.386562409992	103.951769039255	935.869659532985	1104.344122939745	697.008937392972	1005.654085151176	851.673210189403	702.248175435005	
57	8.166000000000	792.794850565038	1005.383117263392	433.880724641492	969.948470833402	1432.962042879128	234.907575763763	1072.066815031814	1370.709802900406	399.276658831723	985.231953071108	1447.615619842138	570.389986714307	959.499442550236	1499.929525781055	388.975692172825	1023.404655601646	954.426472111893	553.438947790694	1011.060963735764	967.823142086879	278.615103423374	1115.572653923671	792.107286128063	526.403502309532	1087.170358781177	671.645543121834	609.786342398683	1177.093155000104	636.045306268037	530.163143851335	1207.916322448653	532.846307933115	557.509322669930	1057.669640161947	752.876684335398	310.284479207570	967.611195699396	638.384469871857	247.603735601454	1047.787307662943	559.892226921943	312.541827279104	1045.031043249721	492.319032241974	323.019975815111	1021.847177936285	419.951685501998	313.706787676827	935.464478538106	303.004437281817	262.532337411924	988.144049409278	194.538837321206	337.066298094905	1151.217284187840	446.493493062765	569.995686946840	1047.184109233684	379.518554985636	637.097611500144	1061.030412402455	268.280154103025	593.075702356663	884.418382851324	159.735038319790	576.831731784659	1062.923000562500	139.859670590202	611.129762590522	957.818426098455	112.652462601886	645.882878578505	1150.880940436286	42.679115147880	629.729459700958	863.159696863687	38.022612576133	381.563374055682	935.417088697988	34.431413785511	299.009671656693	1017.555065490615	97.632058264745	325.348182415153	1146.340700868737	49.684738568204	294.279624728169	983.173527579286	1087.709594107376	99.676915965228	1162.520403857453	894.543806456175	104.095313091894	928.618281934410	1105.494562161238	696.403135752225	988.567124943507	850.440093428647	705.677740538039	
